<mxfile host="app.diagrams.net" modified="2022-07-05T14:45:53.825Z" agent="5.0 (X11)" etag="X4QWTGbw0AOwBjNmWzgB" version="20.0.4" type="github">
  <diagram id="4xAlueajEXwUmsY7dy-2" name="Page-1">
    <mxGraphModel dx="936" dy="566" grid="1" gridSize="10" guides="1" tooltips="1" connect="1" arrows="1" fold="1" page="1" pageScale="1" pageWidth="827" pageHeight="1169" math="0" shadow="0">
      <root>
        <mxCell id="0" />
        <mxCell id="1" parent="0" />
        <mxCell id="lXb_D8qWP0BNydqeNCGy-24" style="edgeStyle=orthogonalEdgeStyle;rounded=0;orthogonalLoop=1;jettySize=auto;html=1;exitX=0.25;exitY=1;exitDx=0;exitDy=0;entryX=0.25;entryY=0;entryDx=0;entryDy=0;" edge="1" parent="1" source="TXKYhUwDw8YYV6_7jRAu-2" target="LfPHgs6H-1GQvr0upuA2-1">
          <mxGeometry relative="1" as="geometry" />
        </mxCell>
        <mxCell id="lXb_D8qWP0BNydqeNCGy-25" style="edgeStyle=orthogonalEdgeStyle;rounded=0;orthogonalLoop=1;jettySize=auto;html=1;exitX=0.75;exitY=1;exitDx=0;exitDy=0;entryX=0.5;entryY=0;entryDx=0;entryDy=0;" edge="1" parent="1" source="TXKYhUwDw8YYV6_7jRAu-2" target="lXb_D8qWP0BNydqeNCGy-6">
          <mxGeometry relative="1" as="geometry" />
        </mxCell>
        <mxCell id="TXKYhUwDw8YYV6_7jRAu-2" value="User" style="swimlane;fontStyle=0;align=center;verticalAlign=top;childLayout=stackLayout;horizontal=1;startSize=26;horizontalStack=0;resizeParent=1;resizeLast=0;collapsible=1;marginBottom=0;rounded=0;shadow=0;strokeWidth=1;" parent="1" vertex="1">
          <mxGeometry x="30" y="80" width="260" height="160" as="geometry">
            <mxRectangle x="340" y="380" width="170" height="26" as="alternateBounds" />
          </mxGeometry>
        </mxCell>
        <mxCell id="TXKYhUwDw8YYV6_7jRAu-3" value="id                                        int  [increment]" style="text;align=left;verticalAlign=top;spacingLeft=4;spacingRight=4;overflow=hidden;rotatable=0;points=[[0,0.5],[1,0.5]];portConstraint=eastwest;" parent="TXKYhUwDw8YYV6_7jRAu-2" vertex="1">
          <mxGeometry y="26" width="260" height="26" as="geometry" />
        </mxCell>
        <mxCell id="TXKYhUwDw8YYV6_7jRAu-4" value="email                                   varchar  [unique]" style="text;align=left;verticalAlign=top;spacingLeft=4;spacingRight=4;overflow=hidden;rotatable=0;points=[[0,0.5],[1,0.5]];portConstraint=eastwest;" parent="TXKYhUwDw8YYV6_7jRAu-2" vertex="1">
          <mxGeometry y="52" width="260" height="26" as="geometry" />
        </mxCell>
        <mxCell id="TXKYhUwDw8YYV6_7jRAu-6" value="password                            varchar (190)" style="text;align=left;verticalAlign=top;spacingLeft=4;spacingRight=4;overflow=hidden;rotatable=0;points=[[0,0.5],[1,0.5]];portConstraint=eastwest;" parent="TXKYhUwDw8YYV6_7jRAu-2" vertex="1">
          <mxGeometry y="78" width="260" height="26" as="geometry" />
        </mxCell>
        <mxCell id="TXKYhUwDw8YYV6_7jRAu-14" value="roles                                   array" style="text;align=left;verticalAlign=top;spacingLeft=4;spacingRight=4;overflow=hidden;rotatable=0;points=[[0,0.5],[1,0.5]];portConstraint=eastwest;" parent="TXKYhUwDw8YYV6_7jRAu-2" vertex="1">
          <mxGeometry y="104" width="260" height="26" as="geometry" />
        </mxCell>
        <mxCell id="TXKYhUwDw8YYV6_7jRAu-15" value="created_at                          datetime" style="text;align=left;verticalAlign=top;spacingLeft=4;spacingRight=4;overflow=hidden;rotatable=0;points=[[0,0.5],[1,0.5]];portConstraint=eastwest;" parent="TXKYhUwDw8YYV6_7jRAu-2" vertex="1">
          <mxGeometry y="130" width="260" height="26" as="geometry" />
        </mxCell>
        <mxCell id="TXKYhUwDw8YYV6_7jRAu-33" value="Job ad" style="swimlane;fontStyle=0;align=center;verticalAlign=top;childLayout=stackLayout;horizontal=1;startSize=26;horizontalStack=0;resizeParent=1;resizeLast=0;collapsible=1;marginBottom=0;rounded=0;shadow=0;strokeWidth=1;" parent="1" vertex="1">
          <mxGeometry x="540" y="160" width="226" height="190" as="geometry">
            <mxRectangle x="340" y="380" width="170" height="26" as="alternateBounds" />
          </mxGeometry>
        </mxCell>
        <mxCell id="TXKYhUwDw8YYV6_7jRAu-34" value="id                               int  [increment]" style="text;align=left;verticalAlign=top;spacingLeft=4;spacingRight=4;overflow=hidden;rotatable=0;points=[[0,0.5],[1,0.5]];portConstraint=eastwest;" parent="TXKYhUwDw8YYV6_7jRAu-33" vertex="1">
          <mxGeometry y="26" width="226" height="26" as="geometry" />
        </mxCell>
        <mxCell id="TXKYhUwDw8YYV6_7jRAu-35" value="title                           varchar (190)" style="text;align=left;verticalAlign=top;spacingLeft=4;spacingRight=4;overflow=hidden;rotatable=0;points=[[0,0.5],[1,0.5]];portConstraint=eastwest;" parent="TXKYhUwDw8YYV6_7jRAu-33" vertex="1">
          <mxGeometry y="52" width="226" height="26" as="geometry" />
        </mxCell>
        <mxCell id="I-ocmR2pLdEPyR1PU4Qc-3" value="workplace                           varchar (190)" style="text;align=left;verticalAlign=top;spacingLeft=4;spacingRight=4;overflow=hidden;rotatable=0;points=[[0,0.5],[1,0.5]];portConstraint=eastwest;" parent="TXKYhUwDw8YYV6_7jRAu-33" vertex="1">
          <mxGeometry y="78" width="226" height="26" as="geometry" />
        </mxCell>
        <mxCell id="I-ocmR2pLdEPyR1PU4Qc-4" value="description                           text" style="text;align=left;verticalAlign=top;spacingLeft=4;spacingRight=4;overflow=hidden;rotatable=0;points=[[0,0.5],[1,0.5]];portConstraint=eastwest;" parent="TXKYhUwDw8YYV6_7jRAu-33" vertex="1">
          <mxGeometry y="104" width="226" height="26" as="geometry" />
        </mxCell>
        <mxCell id="lXb_D8qWP0BNydqeNCGy-15" value="isVisible                           boolean" style="text;align=left;verticalAlign=top;spacingLeft=4;spacingRight=4;overflow=hidden;rotatable=0;points=[[0,0.5],[1,0.5]];portConstraint=eastwest;" vertex="1" parent="TXKYhUwDw8YYV6_7jRAu-33">
          <mxGeometry y="130" width="226" height="26" as="geometry" />
        </mxCell>
        <mxCell id="ZN3L-UREjOonGRV1Z96q-5" value="Diagramme de classe TRT Conseil" style="text;html=1;resizable=0;autosize=1;align=center;verticalAlign=middle;points=[];fillColor=none;strokeColor=none;rounded=0;" parent="1" vertex="1">
          <mxGeometry x="320" y="10" width="210" height="30" as="geometry" />
        </mxCell>
        <mxCell id="lXb_D8qWP0BNydqeNCGy-36" style="edgeStyle=orthogonalEdgeStyle;rounded=0;orthogonalLoop=1;jettySize=auto;html=1;exitX=0.25;exitY=1;exitDx=0;exitDy=0;entryX=0;entryY=0.5;entryDx=0;entryDy=0;fontSize=36;" edge="1" parent="1" source="LfPHgs6H-1GQvr0upuA2-1" target="lXb_D8qWP0BNydqeNCGy-21">
          <mxGeometry relative="1" as="geometry" />
        </mxCell>
        <mxCell id="lXb_D8qWP0BNydqeNCGy-44" style="edgeStyle=orthogonalEdgeStyle;rounded=0;orthogonalLoop=1;jettySize=auto;html=1;exitX=0;exitY=1;exitDx=0;exitDy=0;fontSize=36;entryX=0;entryY=0.5;entryDx=0;entryDy=0;" edge="1" parent="1" source="LfPHgs6H-1GQvr0upuA2-1" target="lXb_D8qWP0BNydqeNCGy-47">
          <mxGeometry relative="1" as="geometry">
            <mxPoint x="30" y="910" as="targetPoint" />
          </mxGeometry>
        </mxCell>
        <mxCell id="LfPHgs6H-1GQvr0upuA2-1" value="Candidate" style="swimlane;fontStyle=0;align=center;verticalAlign=top;childLayout=stackLayout;horizontal=1;startSize=26;horizontalStack=0;resizeParent=1;resizeLast=0;collapsible=1;marginBottom=0;rounded=0;shadow=0;strokeWidth=1;" parent="1" vertex="1">
          <mxGeometry x="30" y="310" width="180" height="186" as="geometry">
            <mxRectangle x="340" y="380" width="170" height="26" as="alternateBounds" />
          </mxGeometry>
        </mxCell>
        <mxCell id="LfPHgs6H-1GQvr0upuA2-2" value="id               int (11) [increment]" style="text;align=left;verticalAlign=top;spacingLeft=4;spacingRight=4;overflow=hidden;rotatable=0;points=[[0,0.5],[1,0.5]];portConstraint=eastwest;" parent="LfPHgs6H-1GQvr0upuA2-1" vertex="1">
          <mxGeometry y="26" width="180" height="26" as="geometry" />
        </mxCell>
        <mxCell id="TXKYhUwDw8YYV6_7jRAu-8" value="lastname               varchar (190)" style="text;align=left;verticalAlign=top;spacingLeft=4;spacingRight=4;overflow=hidden;rotatable=0;points=[[0,0.5],[1,0.5]];portConstraint=eastwest;" parent="LfPHgs6H-1GQvr0upuA2-1" vertex="1">
          <mxGeometry y="52" width="180" height="28" as="geometry" />
        </mxCell>
        <mxCell id="TXKYhUwDw8YYV6_7jRAu-9" value="firstname              varchar (190)" style="text;align=left;verticalAlign=top;spacingLeft=4;spacingRight=4;overflow=hidden;rotatable=0;points=[[0,0.5],[1,0.5]];portConstraint=eastwest;" parent="LfPHgs6H-1GQvr0upuA2-1" vertex="1">
          <mxGeometry y="80" width="180" height="26" as="geometry" />
        </mxCell>
        <mxCell id="lXb_D8qWP0BNydqeNCGy-5" value="cv                        varchar (190)" style="text;align=left;verticalAlign=top;spacingLeft=4;spacingRight=4;overflow=hidden;rotatable=0;points=[[0,0.5],[1,0.5]];portConstraint=eastwest;" vertex="1" parent="LfPHgs6H-1GQvr0upuA2-1">
          <mxGeometry y="106" width="180" height="26" as="geometry" />
        </mxCell>
        <mxCell id="lXb_D8qWP0BNydqeNCGy-13" value="isValided             boolean" style="text;align=left;verticalAlign=top;spacingLeft=4;spacingRight=4;overflow=hidden;rotatable=0;points=[[0,0.5],[1,0.5]];portConstraint=eastwest;" vertex="1" parent="LfPHgs6H-1GQvr0upuA2-1">
          <mxGeometry y="132" width="180" height="26" as="geometry" />
        </mxCell>
        <mxCell id="I-ocmR2pLdEPyR1PU4Qc-6" value="Validation" style="swimlane;fontStyle=0;align=center;verticalAlign=top;childLayout=stackLayout;horizontal=1;startSize=26;horizontalStack=0;resizeParent=1;resizeLast=0;collapsible=1;marginBottom=0;rounded=0;shadow=0;strokeWidth=1;" parent="1" vertex="1">
          <mxGeometry x="470" y="510" width="180" height="130" as="geometry">
            <mxRectangle x="340" y="380" width="170" height="26" as="alternateBounds" />
          </mxGeometry>
        </mxCell>
        <mxCell id="I-ocmR2pLdEPyR1PU4Qc-7" value="user_id               int (11)" style="text;align=left;verticalAlign=top;spacingLeft=4;spacingRight=4;overflow=hidden;rotatable=0;points=[[0,0.5],[1,0.5]];portConstraint=eastwest;" parent="I-ocmR2pLdEPyR1PU4Qc-6" vertex="1">
          <mxGeometry y="26" width="180" height="26" as="geometry" />
        </mxCell>
        <mxCell id="I-ocmR2pLdEPyR1PU4Qc-8" value="jobad_id             int (11)" style="text;align=left;verticalAlign=top;spacingLeft=4;spacingRight=4;overflow=hidden;rotatable=0;points=[[0,0.5],[1,0.5]];portConstraint=eastwest;" parent="I-ocmR2pLdEPyR1PU4Qc-6" vertex="1">
          <mxGeometry y="52" width="180" height="26" as="geometry" />
        </mxCell>
        <mxCell id="lXb_D8qWP0BNydqeNCGy-6" value="Recruiter" style="swimlane;fontStyle=0;align=center;verticalAlign=top;childLayout=stackLayout;horizontal=1;startSize=26;horizontalStack=0;resizeParent=1;resizeLast=0;collapsible=1;marginBottom=0;rounded=0;shadow=0;strokeWidth=1;" vertex="1" parent="1">
          <mxGeometry x="250" y="310" width="180" height="240" as="geometry">
            <mxRectangle x="340" y="380" width="170" height="26" as="alternateBounds" />
          </mxGeometry>
        </mxCell>
        <mxCell id="lXb_D8qWP0BNydqeNCGy-7" value="id               int (11) [increment]" style="text;align=left;verticalAlign=top;spacingLeft=4;spacingRight=4;overflow=hidden;rotatable=0;points=[[0,0.5],[1,0.5]];portConstraint=eastwest;" vertex="1" parent="lXb_D8qWP0BNydqeNCGy-6">
          <mxGeometry y="26" width="180" height="26" as="geometry" />
        </mxCell>
        <mxCell id="lXb_D8qWP0BNydqeNCGy-8" value="lastname               varchar (190)" style="text;align=left;verticalAlign=top;spacingLeft=4;spacingRight=4;overflow=hidden;rotatable=0;points=[[0,0.5],[1,0.5]];portConstraint=eastwest;" vertex="1" parent="lXb_D8qWP0BNydqeNCGy-6">
          <mxGeometry y="52" width="180" height="28" as="geometry" />
        </mxCell>
        <mxCell id="lXb_D8qWP0BNydqeNCGy-9" value="firstname              varchar (190)" style="text;align=left;verticalAlign=top;spacingLeft=4;spacingRight=4;overflow=hidden;rotatable=0;points=[[0,0.5],[1,0.5]];portConstraint=eastwest;" vertex="1" parent="lXb_D8qWP0BNydqeNCGy-6">
          <mxGeometry y="80" width="180" height="26" as="geometry" />
        </mxCell>
        <mxCell id="TXKYhUwDw8YYV6_7jRAu-19" value="firmName            varchar  (190)" style="text;align=left;verticalAlign=top;spacingLeft=4;spacingRight=4;overflow=hidden;rotatable=0;points=[[0,0.5],[1,0.5]];portConstraint=eastwest;" parent="lXb_D8qWP0BNydqeNCGy-6" vertex="1">
          <mxGeometry y="106" width="180" height="26" as="geometry" />
        </mxCell>
        <mxCell id="I-ocmR2pLdEPyR1PU4Qc-2" value="firmAddress         varchar  (190)" style="text;align=left;verticalAlign=top;spacingLeft=4;spacingRight=4;overflow=hidden;rotatable=0;points=[[0,0.5],[1,0.5]];portConstraint=eastwest;" parent="lXb_D8qWP0BNydqeNCGy-6" vertex="1">
          <mxGeometry y="132" width="180" height="26" as="geometry" />
        </mxCell>
        <mxCell id="lXb_D8qWP0BNydqeNCGy-14" value="isValided             boolean" style="text;align=left;verticalAlign=top;spacingLeft=4;spacingRight=4;overflow=hidden;rotatable=0;points=[[0,0.5],[1,0.5]];portConstraint=eastwest;" vertex="1" parent="lXb_D8qWP0BNydqeNCGy-6">
          <mxGeometry y="158" width="180" height="26" as="geometry" />
        </mxCell>
        <mxCell id="lXb_D8qWP0BNydqeNCGy-35" value="jobAd_id             int(11)" style="text;align=left;verticalAlign=top;spacingLeft=4;spacingRight=4;overflow=hidden;rotatable=0;points=[[0,0.5],[1,0.5]];portConstraint=eastwest;" vertex="1" parent="lXb_D8qWP0BNydqeNCGy-6">
          <mxGeometry y="184" width="180" height="26" as="geometry" />
        </mxCell>
        <mxCell id="lXb_D8qWP0BNydqeNCGy-40" value="contact_id             int(11)" style="text;align=left;verticalAlign=top;spacingLeft=4;spacingRight=4;overflow=hidden;rotatable=0;points=[[0,0.5],[1,0.5]];portConstraint=eastwest;" vertex="1" parent="lXb_D8qWP0BNydqeNCGy-6">
          <mxGeometry y="210" width="180" height="26" as="geometry" />
        </mxCell>
        <mxCell id="lXb_D8qWP0BNydqeNCGy-16" value="Contact" style="swimlane;fontStyle=0;align=center;verticalAlign=top;childLayout=stackLayout;horizontal=1;startSize=26;horizontalStack=0;resizeParent=1;resizeLast=0;collapsible=1;marginBottom=0;rounded=0;shadow=0;strokeWidth=1;" vertex="1" parent="1">
          <mxGeometry x="170" y="620" width="180" height="162" as="geometry">
            <mxRectangle x="340" y="380" width="170" height="26" as="alternateBounds" />
          </mxGeometry>
        </mxCell>
        <mxCell id="lXb_D8qWP0BNydqeNCGy-19" value="id               int (11) [increment]" style="text;align=left;verticalAlign=top;spacingLeft=4;spacingRight=4;overflow=hidden;rotatable=0;points=[[0,0.5],[1,0.5]];portConstraint=eastwest;" vertex="1" parent="lXb_D8qWP0BNydqeNCGy-16">
          <mxGeometry y="26" width="180" height="26" as="geometry" />
        </mxCell>
        <mxCell id="lXb_D8qWP0BNydqeNCGy-20" value="lastname               varchar (190)" style="text;align=left;verticalAlign=top;spacingLeft=4;spacingRight=4;overflow=hidden;rotatable=0;points=[[0,0.5],[1,0.5]];portConstraint=eastwest;" vertex="1" parent="lXb_D8qWP0BNydqeNCGy-16">
          <mxGeometry y="52" width="180" height="28" as="geometry" />
        </mxCell>
        <mxCell id="lXb_D8qWP0BNydqeNCGy-21" value="firstname              varchar (190)" style="text;align=left;verticalAlign=top;spacingLeft=4;spacingRight=4;overflow=hidden;rotatable=0;points=[[0,0.5],[1,0.5]];portConstraint=eastwest;" vertex="1" parent="lXb_D8qWP0BNydqeNCGy-16">
          <mxGeometry y="80" width="180" height="30" as="geometry" />
        </mxCell>
        <mxCell id="lXb_D8qWP0BNydqeNCGy-22" value="cv                        varchar (190)" style="text;align=left;verticalAlign=top;spacingLeft=4;spacingRight=4;overflow=hidden;rotatable=0;points=[[0,0.5],[1,0.5]];portConstraint=eastwest;" vertex="1" parent="lXb_D8qWP0BNydqeNCGy-16">
          <mxGeometry y="110" width="180" height="26" as="geometry" />
        </mxCell>
        <mxCell id="lXb_D8qWP0BNydqeNCGy-26" value="1" style="text;html=1;resizable=0;autosize=1;align=center;verticalAlign=middle;points=[];fillColor=none;strokeColor=none;rounded=0;" vertex="1" parent="1">
          <mxGeometry x="80" y="280" width="30" height="30" as="geometry" />
        </mxCell>
        <mxCell id="lXb_D8qWP0BNydqeNCGy-27" value="1" style="text;html=1;resizable=0;autosize=1;align=center;verticalAlign=middle;points=[];fillColor=none;strokeColor=none;rounded=0;" vertex="1" parent="1">
          <mxGeometry x="230" y="240" width="30" height="30" as="geometry" />
        </mxCell>
        <mxCell id="lXb_D8qWP0BNydqeNCGy-28" value="1" style="text;html=1;resizable=0;autosize=1;align=center;verticalAlign=middle;points=[];fillColor=none;strokeColor=none;rounded=0;" vertex="1" parent="1">
          <mxGeometry x="100" y="240" width="30" height="30" as="geometry" />
        </mxCell>
        <mxCell id="lXb_D8qWP0BNydqeNCGy-29" value="1" style="text;html=1;resizable=0;autosize=1;align=center;verticalAlign=middle;points=[];fillColor=none;strokeColor=none;rounded=0;" vertex="1" parent="1">
          <mxGeometry x="350" y="280" width="30" height="30" as="geometry" />
        </mxCell>
        <mxCell id="lXb_D8qWP0BNydqeNCGy-30" style="edgeStyle=orthogonalEdgeStyle;rounded=0;orthogonalLoop=1;jettySize=auto;html=1;exitX=1;exitY=0.5;exitDx=0;exitDy=0;fontSize=36;" edge="1" parent="1" source="lXb_D8qWP0BNydqeNCGy-9">
          <mxGeometry relative="1" as="geometry">
            <mxPoint x="630" y="350" as="targetPoint" />
          </mxGeometry>
        </mxCell>
        <mxCell id="lXb_D8qWP0BNydqeNCGy-31" value="1" style="text;html=1;resizable=0;autosize=1;align=center;verticalAlign=middle;points=[];fillColor=none;strokeColor=none;rounded=0;" vertex="1" parent="1">
          <mxGeometry x="638" y="350" width="30" height="30" as="geometry" />
        </mxCell>
        <mxCell id="lXb_D8qWP0BNydqeNCGy-32" value="*" style="text;html=1;resizable=0;autosize=1;align=center;verticalAlign=middle;points=[];fillColor=none;strokeColor=none;rounded=0;" vertex="1" parent="1">
          <mxGeometry x="430" y="410" width="30" height="30" as="geometry" />
        </mxCell>
        <mxCell id="lXb_D8qWP0BNydqeNCGy-37" value="1" style="text;html=1;resizable=0;autosize=1;align=center;verticalAlign=middle;points=[];fillColor=none;strokeColor=none;rounded=0;" vertex="1" parent="1">
          <mxGeometry x="90" y="510" width="30" height="30" as="geometry" />
        </mxCell>
        <mxCell id="lXb_D8qWP0BNydqeNCGy-38" value="1" style="text;html=1;resizable=0;autosize=1;align=center;verticalAlign=middle;points=[];fillColor=none;strokeColor=none;rounded=0;" vertex="1" parent="1">
          <mxGeometry x="130" y="680" width="30" height="30" as="geometry" />
        </mxCell>
        <mxCell id="lXb_D8qWP0BNydqeNCGy-39" style="edgeStyle=orthogonalEdgeStyle;rounded=0;orthogonalLoop=1;jettySize=auto;html=1;exitX=1;exitY=0.5;exitDx=0;exitDy=0;entryX=0.75;entryY=1;entryDx=0;entryDy=0;fontSize=36;" edge="1" parent="1" source="lXb_D8qWP0BNydqeNCGy-21" target="lXb_D8qWP0BNydqeNCGy-6">
          <mxGeometry relative="1" as="geometry" />
        </mxCell>
        <mxCell id="lXb_D8qWP0BNydqeNCGy-41" value="1" style="text;html=1;resizable=0;autosize=1;align=center;verticalAlign=middle;points=[];fillColor=none;strokeColor=none;rounded=0;" vertex="1" parent="1">
          <mxGeometry x="360" y="720" width="30" height="30" as="geometry" />
        </mxCell>
        <mxCell id="lXb_D8qWP0BNydqeNCGy-42" value="*" style="text;html=1;resizable=0;autosize=1;align=center;verticalAlign=middle;points=[];fillColor=none;strokeColor=none;rounded=0;" vertex="1" parent="1">
          <mxGeometry x="390" y="555" width="30" height="30" as="geometry" />
        </mxCell>
        <mxCell id="lXb_D8qWP0BNydqeNCGy-43" value="Mettre des verbes" style="text;html=1;resizable=0;autosize=1;align=center;verticalAlign=middle;points=[];fillColor=none;strokeColor=none;rounded=0;fontSize=36;" vertex="1" parent="1">
          <mxGeometry x="340" y="90" width="310" height="60" as="geometry" />
        </mxCell>
        <mxCell id="lXb_D8qWP0BNydqeNCGy-45" value="Candidature" style="swimlane;fontStyle=0;align=center;verticalAlign=top;childLayout=stackLayout;horizontal=1;startSize=26;horizontalStack=0;resizeParent=1;resizeLast=0;collapsible=1;marginBottom=0;rounded=0;shadow=0;strokeWidth=1;" vertex="1" parent="1">
          <mxGeometry x="310" y="830" width="180" height="130" as="geometry">
            <mxRectangle x="340" y="380" width="170" height="26" as="alternateBounds" />
          </mxGeometry>
        </mxCell>
        <mxCell id="lXb_D8qWP0BNydqeNCGy-46" value="user_id               int (11)" style="text;align=left;verticalAlign=top;spacingLeft=4;spacingRight=4;overflow=hidden;rotatable=0;points=[[0,0.5],[1,0.5]];portConstraint=eastwest;" vertex="1" parent="lXb_D8qWP0BNydqeNCGy-45">
          <mxGeometry y="26" width="180" height="26" as="geometry" />
        </mxCell>
        <mxCell id="lXb_D8qWP0BNydqeNCGy-47" value="jobad_id             int (11)" style="text;align=left;verticalAlign=top;spacingLeft=4;spacingRight=4;overflow=hidden;rotatable=0;points=[[0,0.5],[1,0.5]];portConstraint=eastwest;" vertex="1" parent="lXb_D8qWP0BNydqeNCGy-45">
          <mxGeometry y="52" width="180" height="26" as="geometry" />
        </mxCell>
        <mxCell id="lXb_D8qWP0BNydqeNCGy-48" style="edgeStyle=orthogonalEdgeStyle;rounded=0;orthogonalLoop=1;jettySize=auto;html=1;exitX=1;exitY=0.5;exitDx=0;exitDy=0;fontSize=36;" edge="1" parent="1" source="lXb_D8qWP0BNydqeNCGy-47">
          <mxGeometry relative="1" as="geometry">
            <mxPoint x="670" y="350" as="targetPoint" />
          </mxGeometry>
        </mxCell>
      </root>
    </mxGraphModel>
  </diagram>
</mxfile>
